<svg width="1512" height="4039" viewBox="0 0 1512 4039" fill="none" xmlns="http://www.w3.org/2000/svg">
<rect width="1512" height="3923" fill="#FEFCFB"/>
<g filter="url(#filter0_f_101_3)">
<path d="M402.066 282.768C303.698 178.124 140.626 180.836 71.3865 195.272C-47.5939 410.94 -217.688 839.173 53.7782 826.765C393.111 811.256 424.151 695.96 445.938 664.649C467.724 633.338 525.026 413.573 402.066 282.768Z" fill="#0B2545" fill-opacity="0.6"/>
<path d="M1062.89 604.649C1120.43 480.574 1307 479.117 1366.89 489.261C1972.8 556.878 1920.39 1105.56 1314.48 1082.51C1140.18 1083.68 1059.4 1002.62 1040.8 961.949C1024.19 894.547 1005.35 728.724 1062.89 604.649Z" fill="#0B2545" fill-opacity="0.6"/>
<path d="M209.656 1347.19C111.288 1242.54 -51.7836 1245.25 -121.023 1259.69C-240.003 1475.36 -410.098 1903.59 -138.631 1891.18C200.702 1875.67 231.741 1760.38 253.528 1729.07C275.314 1697.76 332.616 1477.99 209.656 1347.19Z" fill="#0B2545" fill-opacity="0.6"/>
<path d="M810.476 1729.07C868.017 1604.99 1054.59 1603.54 1114.48 1613.68C1720.39 1681.3 1667.98 2229.97 1062.07 2206.93C887.774 2208.1 806.994 2127.04 788.391 2086.37C771.778 2018.97 752.936 1853.14 810.476 1729.07Z" fill="#0B2545" fill-opacity="0.6"/>
<path d="M495.629 2459.84C397.261 2355.19 234.19 2357.91 164.95 2372.34C45.9698 2588.01 -124.124 3016.24 147.342 3003.83C486.675 2988.33 517.714 2873.03 539.5 2841.72C561.287 2810.41 618.588 2590.64 495.629 2459.84Z" fill="#0B2545" fill-opacity="0.6"/>
<path d="M1058.02 2841.72C1115.56 2717.64 1302.13 2716.19 1362.02 2726.33C1967.93 2793.95 1915.52 3342.62 1309.61 3319.58C1135.32 3320.75 1054.54 3239.69 1035.93 3199.02C1019.32 3131.62 1000.48 2965.79 1058.02 2841.72Z" fill="#0B2545" fill-opacity="0.6"/>
<path d="M165.784 3670.12C67.4166 3565.48 -95.6541 3568.19 -164.894 3582.62C-283.874 3798.29 -453.968 4226.52 -182.502 4214.12C156.831 4198.61 187.869 4083.31 209.656 4052C231.442 4020.69 288.744 3800.92 165.784 3670.12Z" fill="#0B2545" fill-opacity="0.6"/>
<path d="M736.801 3926.39C794.342 3802.31 980.913 3800.86 1040.8 3811C1646.71 3878.62 1594.3 4427.29 988.391 4404.25C814.099 4405.42 733.32 4324.36 714.716 4283.69C698.103 4216.29 679.261 4050.46 736.801 3926.39Z" fill="#0B2545" fill-opacity="0.6"/>
</g>
<defs>
<filter id="filter0_f_101_3" x="-827.87" y="-312" width="3123.83" height="5216.96" filterUnits="userSpaceOnUse" color-interpolation-filters="sRGB">
<feFlood flood-opacity="0" result="BackgroundImageFix"/>
<feBlend mode="normal" in="SourceGraphic" in2="BackgroundImageFix" result="shape"/>
<feGaussianBlur stdDeviation="250" result="effect1_foregroundBlur_101_3"/>
</filter>
</defs>
</svg>
