<svg width="28" height="31" viewBox="0 0 28 31" fill="none" xmlns="http://www.w3.org/2000/svg">
<path d="M8.33817 11.9874L14.4428 22.561C14.9015 23.3271 15.6429 23.8823 16.5072 24.1065C17.3715 24.3308 18.2893 24.2063 19.0626 23.7598C19.8358 23.3134 20.4026 22.5808 20.6405 21.7202C20.8784 20.8595 20.7684 19.9399 20.3342 19.1596L12.3421 5.29487C11.9686 4.62938 11.4667 4.04466 10.8655 3.57459C10.2643 3.10453 9.57579 2.75847 8.83986 2.55649C8.10393 2.3545 7.33522 2.30061 6.5783 2.39792C5.82139 2.49524 5.09131 2.74183 4.43041 3.1234C3.76951 3.50498 3.19091 4.01394 2.72818 4.62079C2.26544 5.22764 1.92777 5.92031 1.73472 6.65864C1.54168 7.39697 1.49712 8.16627 1.60361 8.92195C1.7101 9.67763 1.96553 10.4047 2.35509 11.0609L10.4106 25.0135C10.9343 25.9516 11.6393 26.7763 12.4845 27.4396C13.3298 28.1029 14.2985 28.5915 15.3342 28.8771C16.37 29.1627 17.4522 29.2395 18.518 29.1031C19.5837 28.9668 20.6117 28.6199 21.5422 28.0827C22.4727 27.5454 23.2871 26.8286 23.938 25.9739C24.589 25.1191 25.0636 24.1435 25.3342 23.1037C25.6047 22.0639 25.6659 20.9806 25.5141 19.917C25.3623 18.8533 25.0006 17.8305 24.45 16.9079L16.9223 3.86967" stroke="#727A82" stroke-width="3" stroke-miterlimit="10" stroke-linecap="round"/>
</svg>
