<svg width="115" height="115" viewBox="0 0 115 115" fill="none" xmlns="http://www.w3.org/2000/svg">
<path d="M58 8C30.3884 8 8 30.9687 8 59.2723C8 81.9285 22.3304 101.125 42.1964 107.911C42.4751 107.971 42.7595 108.001 43.0446 108C44.8973 108 45.6116 106.638 45.6116 105.455C45.6116 104.228 45.567 101.013 45.5446 96.7276C43.8907 97.1154 42.1987 97.3175 40.5 97.3303C30.8795 97.3303 28.692 89.8526 28.692 89.8526C26.4152 83.9375 23.1339 82.3526 23.1339 82.3526C18.7813 79.2946 23.1116 79.2053 23.4464 79.2053H23.4688C28.4911 79.6518 31.125 84.5178 31.125 84.5178C33.625 88.8928 36.9732 90.1205 39.9643 90.1205C41.942 90.081 43.8892 89.6246 45.6786 88.7812C46.125 85.4776 47.4196 83.2232 48.8482 81.9285C37.7545 80.6339 26.0804 76.2366 26.0804 56.5937C26.0804 50.9911 28.0223 46.4152 31.2143 42.8437C30.7009 41.5491 28.9821 36.3259 31.7054 29.2723C32.0706 29.1849 32.4461 29.1474 32.8214 29.1607C34.6295 29.1607 38.7143 29.8527 45.4554 34.5402C53.6463 32.2485 62.3091 32.2485 70.5 34.5402C77.2411 29.8527 81.3259 29.1607 83.1339 29.1607C83.5093 29.1474 83.8847 29.1849 84.25 29.2723C86.9732 36.3259 85.2545 41.5491 84.7411 42.8437C87.933 46.4375 89.875 51.0134 89.875 56.5937C89.875 76.2812 78.1786 80.6116 67.0402 81.8839C68.8259 83.4687 70.433 86.5937 70.433 91.3705C70.433 98.2232 70.3661 103.759 70.3661 105.433C70.3661 106.638 71.058 108 72.9107 108C73.2106 108.001 73.5099 107.971 73.8036 107.911C93.692 101.125 108 81.9062 108 59.2723C108 30.9687 85.6116 8 58 8Z" fill="#DDE8F3"/>
</svg>
