<svg width="69" height="50" viewBox="0 0 69 50" fill="none" xmlns="http://www.w3.org/2000/svg">
<path d="M31.1195 0.0447308L10.3526 35.4435H2.77102C-0.657175 34.6495 -0.195688 29.5988 0.46358 27.1728L14.6378 4.01469C16.7475 0.309395 20.1317 -0.175822 21.5601 0.0447308H31.1195Z" fill="#EEF4ED"/>
<path d="M25.1861 12.9471L20.5712 20.2253L35.0751 45.6992C37.4485 48.8752 40.0196 49.8897 41.0085 50H52.2161L33.0973 16.5862C30.9877 12.6163 26.9442 12.506 25.1861 12.9471Z" fill="#EEF4ED"/>
<path d="M28.4825 37.0976H2.77102L7.3859 45.6992C8.70443 48.0812 11.2316 49.5589 12.3304 50H28.4825C32.4381 48.1474 32.5479 44.3759 32.1084 42.7217L28.4825 37.0976Z" fill="#EEF4ED"/>
<path d="M35.0751 17.9095L39.3604 25.5186H57.1606L60.7866 17.9095C60.2591 14.9982 57.0507 13.3882 55.5124 12.9471H40.3493C37.7122 13.2117 35.7344 16.3657 35.0751 17.9095Z" fill="#EEF4ED"/>
<path d="M62.1051 19.2328L49.2494 42.0601L52.8754 48.6767C55.7761 50.794 58.9186 49.1178 60.1273 48.015L67.3792 36.1052C68.6978 32.9292 68.3681 30.5913 68.0385 29.8194L62.1051 19.2328Z" fill="#EEF4ED"/>
</svg>
