<svg width="115" height="115" viewBox="0 0 115 115" fill="none" xmlns="http://www.w3.org/2000/svg">
<path d="M78.8326 16.3326C84.3533 16.3491 89.6431 18.5495 93.5468 22.4532C97.4505 26.3569 99.6509 31.6467 99.6674 37.1674V78.8326C99.6509 84.3533 97.4505 89.6431 93.5468 93.5468C89.6431 97.4505 84.3533 99.6509 78.8326 99.6674H37.1674C31.6467 99.6509 26.3569 97.4505 22.4532 93.5468C18.5495 89.6431 16.3491 84.3533 16.3326 78.8326V37.1674C16.3491 31.6467 18.5495 26.3569 22.4532 22.4532C26.3569 18.5495 31.6467 16.3491 37.1674 16.3326H78.8326ZM78.8326 8H37.1674C21.125 8 8 21.125 8 37.1674V78.8326C8 94.875 21.125 108 37.1674 108H78.8326C94.875 108 108 94.875 108 78.8326V37.1674C108 21.125 94.875 8 78.8326 8Z" fill="#DDE8F3"/>
<path d="M85.0826 37.1671C83.8465 37.1671 82.6381 36.8006 81.6103 36.1138C80.5825 35.4271 79.7814 34.4509 79.3084 33.3089C78.8353 32.1669 78.7115 30.9102 78.9527 29.6978C79.1939 28.4854 79.7891 27.3718 80.6632 26.4977C81.5373 25.6236 82.6509 25.0284 83.8633 24.7872C85.0757 24.5461 86.3323 24.6698 87.4744 25.1429C88.6164 25.6159 89.5925 26.417 90.2793 27.4448C90.966 28.4726 91.3326 29.681 91.3326 30.9171C91.3344 31.7384 91.1739 32.5519 90.8604 33.311C90.547 34.0701 90.0867 34.7598 89.506 35.3405C88.9252 35.9212 88.2355 36.3815 87.4765 36.695C86.7174 37.0084 85.9039 37.1689 85.0826 37.1671ZM58 41.3323C61.2965 41.3323 64.519 42.3098 67.2599 44.1413C70.0009 45.9727 72.1372 48.5758 73.3987 51.6214C74.6602 54.667 74.9903 58.0182 74.3472 61.2514C73.704 64.4845 72.1166 67.4544 69.7857 69.7854C67.4547 72.1163 64.4848 73.7038 61.2517 74.3469C58.0185 74.99 54.6672 74.6599 51.6217 73.3984C48.5761 72.1369 45.973 70.0006 44.1416 67.2596C42.3101 64.5187 41.3326 61.2962 41.3326 57.9997C41.3373 53.5807 43.0949 49.344 46.2196 46.2193C49.3443 43.0946 53.581 41.337 58 41.3323ZM58 32.9997C53.0555 32.9997 48.222 34.4659 44.1108 37.213C39.9995 39.96 36.7952 43.8645 34.903 48.4326C33.0108 53.0008 32.5157 58.0275 33.4804 62.877C34.445 67.7265 36.826 72.1811 40.3223 75.6774C43.8187 79.1737 48.2732 81.5547 53.1228 82.5194C57.9723 83.484 62.9989 82.9889 67.5671 81.0967C72.1352 79.2045 76.0397 76.0002 78.7868 71.889C81.5338 67.7778 83 62.9443 83 57.9997C83 51.3693 80.3661 45.0105 75.6777 40.3221C70.9893 35.6336 64.6304 32.9997 58 32.9997Z" fill="#DDE8F3"/>
</svg>
