<svg width="115" height="115" viewBox="0 0 115 115" fill="none" xmlns="http://www.w3.org/2000/svg">
<path d="M100.002 8H16.5446C11.9844 8 8 11.2812 8 15.7879V99.4308C8 103.962 11.9844 108 16.5446 108H99.9775C104.562 108 108 103.935 108 99.4308V15.7879C108.027 11.2812 104.562 8 100.002 8ZM38.9977 91.3549H24.6718V46.8125H38.9977V91.3549ZM32.3303 40.0402H32.2276C27.6428 40.0402 24.6741 36.6272 24.6741 32.3549C24.6741 28.0045 27.721 24.6719 32.4084 24.6719C37.0959 24.6719 39.9642 27.9799 40.0669 32.3549C40.0647 36.6272 37.0959 40.0402 32.3303 40.0402ZM91.3548 91.3549H77.0289V67C77.0289 61.1652 74.9441 57.1786 69.7611 57.1786C65.8013 57.1786 63.4575 59.8571 62.4151 62.4665C62.0245 63.404 61.9196 64.6808 61.9196 65.9844V91.3549H47.5937V46.8125H61.9196V53.0112C64.0044 50.0424 67.2611 45.7701 74.8392 45.7701C84.2432 45.7701 91.357 51.9688 91.357 65.3326L91.3548 91.3549Z" fill="#DDE8F3"/>
</svg>
