<svg width="76" height="56" viewBox="0 0 76 56" fill="none" xmlns="http://www.w3.org/2000/svg">
<path d="M34.2315 0.549204L11.3879 39.4879H3.04812C-0.722892 38.6145 -0.215257 33.0587 0.509938 30.39L16.1016 4.91615C18.4222 0.840334 22.1449 0.306595 23.7162 0.549204H34.2315Z" fill="#0B2545"/>
<path d="M27.7047 14.7418L22.6284 22.7479L38.5826 50.7691C41.1933 54.2627 44.0216 55.3787 45.1094 55.5H57.4377L36.4071 18.7448C34.0864 14.3779 29.6386 14.2566 27.7047 14.7418Z" fill="#0B2545"/>
<path d="M31.3307 41.3074H3.04812L8.12449 50.7691C9.57487 53.3893 12.3548 55.0148 13.5634 55.5H31.3307C35.6819 53.4621 35.8027 49.3135 35.3193 47.4939L31.3307 41.3074Z" fill="#0B2545"/>
<path d="M38.5826 20.2005L43.2964 28.5705H62.8766L66.8652 20.2005C66.2851 16.998 62.7558 15.227 61.0637 14.7418H44.3842C41.4834 15.0329 39.3078 18.5022 38.5826 20.2005Z" fill="#0B2545"/>
<path d="M68.3156 21.6561L54.1743 46.7661L58.1629 54.0443C61.3537 56.3734 64.8105 54.5296 66.14 53.3165L74.1172 40.2157C75.5676 36.7221 75.2049 34.1505 74.8424 33.3013L68.3156 21.6561Z" fill="#0B2545"/>
</svg>
