<svg width="115" height="115" viewBox="0 0 115 115" fill="none" xmlns="http://www.w3.org/2000/svg">
<path d="M72.1665 57.1053C70.6832 57.1053 69.2331 57.5327 67.9998 58.3334C66.7664 59.1342 65.8051 60.2723 65.2375 61.6039C64.6698 62.9355 64.5213 64.4008 64.8107 65.8144C65.1001 67.228 65.8144 68.5265 66.8633 69.5457C67.9121 70.5649 69.2485 71.2589 70.7034 71.5401C72.1582 71.8213 73.6662 71.677 75.0367 71.1254C76.4071 70.5739 77.5784 69.6398 78.4026 68.4414C79.2267 67.243 79.6665 65.834 79.6665 64.3927C79.6665 62.46 78.8764 60.6064 77.4698 59.2397C76.0633 57.873 74.1557 57.1053 72.1665 57.1053Z" fill="#DDE8F3"/>
<path d="M46.7031 71.1245C50.53 69.5843 52.3472 65.3214 50.7621 61.603C49.177 57.8846 44.7897 56.1189 40.9629 57.6591C37.1361 59.1993 35.3188 63.4622 36.9039 67.1806C38.489 70.899 42.8763 72.6647 46.7031 71.1245Z" fill="#DDE8F3"/>
<path d="M108 56.6538C108 50.3401 102.762 45.2045 96.3333 45.2045C93.6235 45.2042 90.9989 46.1252 88.9145 47.8077C81.6229 42.996 72.0854 40.0506 61.9042 39.4534L66.4875 23.4615L80.3229 26.1336C80.7187 31.4939 85.3229 35.747 90.875 35.747C96.7083 35.747 101.454 31.0911 101.454 25.3806C101.454 19.67 96.5416 15 90.7083 15C86.6395 15 83.1437 17.2652 81.3646 20.8239L62.6146 17.2024L56.1354 39.3725L55.1709 39.3988C44.623 39.8462 34.6834 42.8259 27.0938 47.8057C25.01 46.1169 22.3802 45.1959 19.6668 45.2045C13.2314 45.2045 8.00012 50.3401 8.00012 56.6538C7.99093 58.6635 8.52753 60.6399 9.55575 62.3835C10.584 64.1272 12.0674 65.5765 13.8564 66.585C13.7318 67.48 13.6698 68.3823 13.6709 69.2854C13.6939 77.33 18.3563 84.8725 26.7959 90.5405C35.1584 96.1275 46.2313 99.2105 58 99.2105C69.7687 99.2105 80.8666 96.1275 89.2145 90.5283C97.6583 84.8603 102.308 77.3158 102.308 69.2611C102.306 68.3611 102.248 67.462 102.133 66.5688C103.923 65.5647 105.408 64.1189 106.439 62.3778C107.469 60.6368 108.007 58.6622 108 56.6538ZM90.9166 20.4656C91.9055 20.4656 92.8722 20.7505 93.6945 21.2844C94.5167 21.8182 95.1576 22.577 95.536 23.4647C95.9144 24.3524 96.0135 25.3293 95.8205 26.2717C95.6276 27.2141 95.1514 28.0798 94.4521 28.7592C93.7529 29.4387 92.862 29.9014 91.8921 30.0888C90.9222 30.2763 89.9168 30.1801 89.0032 29.8124C88.0896 29.4447 87.3087 28.822 86.7593 28.023C86.2099 27.2241 85.9166 26.2848 85.9166 25.3239C85.9166 24.0354 86.4434 22.7997 87.3811 21.8885C88.3188 20.9774 89.5905 20.4656 90.9166 20.4656ZM13.5668 56.6538C13.5607 55.0671 14.2025 53.5429 15.3516 52.4154C16.5006 51.2879 18.063 50.6493 19.6959 50.6397C20.686 50.6417 21.6604 50.8801 22.5334 51.334C19.3043 54.251 16.923 57.4899 15.4355 60.9858C14.8457 60.4189 14.377 59.7444 14.0563 59.001C13.7357 58.2576 13.5693 57.4599 13.5668 56.6538ZM86.0875 86.0526C78.6416 91.0304 68.6708 93.7733 58.0104 93.7733C47.35 93.7733 37.3751 91.0344 29.9355 86.0526C23.0605 81.4393 19.2605 75.4737 19.2605 69.251C19.2643 67.3654 19.6135 65.4955 20.2918 63.7287C21.4751 60.5425 23.6584 57.5587 26.7813 54.8644C27.757 54.0269 28.7839 53.2475 29.8563 52.5304L29.9188 52.4879L29.9688 52.4534C37.4105 47.4899 47.3688 44.7611 58.0125 44.7611C68.6562 44.7611 78.6166 47.496 86.0583 52.4534L86.1062 52.4879L86.177 52.5385C87.2481 53.2529 88.2742 54.0289 89.25 54.8623C92.3749 57.5587 94.5583 60.5405 95.7416 63.7308C96.171 64.8886 96.4721 66.0877 96.6395 67.3077C96.7231 67.9557 96.7649 68.6081 96.7645 69.2611C96.7624 75.4798 92.9708 81.4453 86.0875 86.0526ZM100.587 60.9676C99.102 57.4696 96.7208 54.2287 93.4895 51.3077C94.366 50.8585 95.3424 50.6249 96.3333 50.6275C97.9661 50.6372 99.5282 51.2758 100.677 52.4034C101.826 53.5309 102.467 55.0552 102.46 56.6417C102.459 57.448 102.293 58.246 101.971 58.9893C101.649 59.7326 101.179 60.4064 100.587 60.9717V60.9676Z" fill="#DDE8F3"/>
<path d="M72.0058 78.6067C71.9537 78.6573 66.6808 83.884 58.0163 83.9245C49.2663 83.884 44.208 78.8172 43.9934 78.6067C43.8318 78.451 43.6136 78.3637 43.3861 78.3637C43.1586 78.3637 42.9403 78.451 42.7788 78.6067L39.9246 81.3334C39.8437 81.4115 39.7795 81.5043 39.7356 81.6067C39.6918 81.709 39.6692 81.8187 39.6692 81.9295C39.6692 82.0404 39.6918 82.1501 39.7356 82.2524C39.7795 82.3547 39.8437 82.4476 39.9246 82.5257C40.633 83.2139 47.1538 89.4548 58.0038 89.4994C68.8246 89.4548 75.3746 83.2139 76.0829 82.5257C76.1639 82.4474 76.2282 82.3544 76.2721 82.2519C76.3159 82.1494 76.3385 82.0395 76.3385 81.9285C76.3385 81.8175 76.3159 81.7076 76.2721 81.6051C76.2282 81.5027 76.1639 81.4096 76.0829 81.3313L73.2267 78.6046C73.0656 78.4497 72.8481 78.3629 72.6214 78.3629C72.3948 78.3629 72.1773 78.4497 72.0162 78.6046L72.0058 78.6067Z" fill="#DDE8F3"/>
</svg>
