<svg width="115" height="115" viewBox="0 0 115 115" fill="none" xmlns="http://www.w3.org/2000/svg">
<path d="M108 24.9781C104.249 26.6938 100.28 27.8241 96.2188 28.3333C100.487 25.7026 103.696 21.5232 105.246 16.579C101.211 19.0627 96.8032 20.8054 92.2125 21.7325C90.2794 19.5999 87.9544 17.9033 85.379 16.746C82.8036 15.5886 80.0315 14.9946 77.2312 15C65.8937 15 56.7188 24.5175 56.7188 36.25C56.7107 37.8819 56.8884 39.509 57.2479 41.0964C49.1181 40.6953 41.1573 38.5122 33.875 34.6869C26.5926 30.8617 20.1489 25.4784 14.9562 18.8816C13.1345 22.1143 12.1711 25.8027 12.1667 29.5614C12.1667 36.9298 15.8187 43.4429 21.3333 47.2587C18.0661 47.1771 14.8658 46.2668 12.0042 44.6052V44.8684C12.0042 55.1753 19.0875 63.7499 28.4625 65.7016C26.6995 66.1963 24.8828 66.447 23.0583 66.4472C21.7637 66.4496 20.472 66.3174 19.2021 66.0525C21.8083 74.4955 29.3938 80.6358 38.3792 80.8112C31.0779 86.7343 22.1138 89.9356 12.8958 89.9121C11.2596 89.9095 9.62493 89.807 8 89.6051C17.3775 95.9082 28.278 99.2422 39.4042 99.2103C77.1875 99.2103 97.8292 66.8201 97.8292 38.728C97.8292 37.807 97.8062 36.8859 97.7646 35.9868C101.771 32.987 105.237 29.259 108 24.9781Z" fill="#DDE8F3"/>
</svg>
